<svg xmlns="http://www.w3.org/2000/svg" width="151" height="50" viewBox="0 0 151 50"><defs><clipPath id="bwgza"><path d="M23.42 7.54h24.45v42.296H23.42z"/></clipPath><clipPath id="bwgzb"><path d="M0 .41h52.27v16.362H0z"/></clipPath></defs><g><g><g><path d="M67.012 29.718h-3.506l-1.016-2.566h-5.057l-.96 2.566H53.04l5.482-13.068h3.064zm-5.4-5.104l-1.618-4.475-1.657 4.475z"/></g><g><path d="M76.701 19.345H71.22v2.694h5.058v2.603h-5.058v5.076H68.1V16.65h8.601z"/></g><g><g><path d="M90.93 23.148c0 1.107-.209 2.091-.627 2.952-.418.862-.982 1.55-1.689 2.068a7.76 7.76 0 0 1-2.335 1.163 9.135 9.135 0 0 1-2.676.387H78.73V16.65h4.725c.775 0 1.51.065 2.206.194.695.13 1.369.354 2.021.674.652.32 1.215.72 1.689 1.2.473.48.852 1.098 1.135 1.855.283.756.425 1.615.425 2.575m-3.276 0c0-.702-.117-1.308-.351-1.819-.235-.51-.558-.907-.971-1.19a4.19 4.19 0 0 0-1.35-.61 6.523 6.523 0 0 0-1.599-.184h-1.571v7.641h1.497c1.27 0 2.311-.3 3.125-.904.813-.603 1.22-1.58 1.22-2.934"/></g><g><path d="M109.662 29.718h-3.506l-1.016-2.566h-5.057l-.96 2.566H95.69l5.482-13.068h3.064zm-5.4-5.104l-1.618-4.475-1.657 4.475z"/></g><g><path d="M122.028 28.925c-1.44.75-3.119 1.126-5.038 1.126-2.105 0-3.828-.637-5.169-1.91-1.341-1.274-2.011-2.932-2.011-4.975 0-2.054.673-3.712 2.02-4.974 1.348-1.261 3.037-1.892 5.067-1.892 1.009 0 1.963.157 2.861.47.898.314 1.625.737 2.178 1.265l-1.993 2.27c-.702-.812-1.68-1.218-2.935-1.218-1.107 0-2.024.388-2.75 1.163s-1.089 1.748-1.089 2.916c0 1.231.35 2.225 1.052 2.982.701.756 1.68 1.134 2.934 1.134.776 0 1.434-.116 1.975-.35V24.55h-2.49v-2.547h5.388z"/></g><g><path d="M135.296 29.718h-3.69l-2.825-5.187h-1.07v5.187h-3.101V16.65h4.983c.665 0 1.28.068 1.846.203a5.6 5.6 0 0 1 1.587.646c.492.296.877.708 1.154 1.237.277.529.415 1.15.415 1.864 0 .861-.24 1.6-.72 2.215-.479.615-1.144 1.052-1.993 1.31zm-5.92-10.521h-1.683v3.036h1.498c1.53 0 2.295-.528 2.295-1.582 0-.97-.703-1.454-2.11-1.454z"/></g><g><path d="M150.47 23.13c0 2.054-.67 3.725-2.012 5.01-1.34 1.286-3.045 1.93-5.112 1.93-2.055 0-3.754-.644-5.094-1.93-1.342-1.285-2.012-2.956-2.012-5.01 0-2.068.667-3.723 2.002-4.966 1.336-1.242 3.037-1.864 5.104-1.864 2.08 0 3.787.622 5.122 1.864 1.335 1.243 2.003 2.898 2.003 4.966m-3.388 0c0-1.157-.35-2.11-1.05-2.862-.701-.75-1.598-1.126-2.692-1.126-1.093 0-1.988.376-2.682 1.126-.694.751-1.042 1.705-1.042 2.862 0 1.18.348 2.153 1.042 2.915.694.764 1.589 1.145 2.682 1.145 1.094 0 1.99-.381 2.691-1.145.7-.762 1.05-1.734 1.05-2.915"/></g><g><g/><g clip-path="url(#bwgza)"><path fill="#639" d="M23.42 49.836L37.676 16.56 47.87 7.54 37.05 42.906z"/></g></g><g><g/><g clip-path="url(#bwgzb)"><path fill="#639" d="M0 16.772l7.648-7.986L52.271.41 36.305 14.663z"/></g></g><g><path fill="#639" d="M24.044 42.514l5.06-11.852-13.38-12.972-9.094.513z"/></g><g><path d="M52.92 36.927V34.19h1.554v.248h-1.276v2.489z"/></g><g><path d="M54.88 36.927V34.19h.773c.286 0 .512.062.677.186.165.123.247.305.247.545 0 .24-.084.421-.251.546-.168.125-.394.188-.68.188h-.488v1.272zm.278-1.508h.472c.217 0 .382-.043.497-.127a.433.433 0 0 0 .171-.371c0-.328-.222-.491-.668-.491h-.472z"/></g><g><path d="M57.253 36.958c-.088 0-.169-.008-.243-.024l.042-.262c.057.02.123.03.198.03a.34.34 0 0 0 .222-.073.795.795 0 0 0 .18-.232l.181-.336-1.063-1.871h.325l.893 1.589.87-1.589h.305l-1.272 2.3c-.087.155-.18.271-.274.35a.555.555 0 0 1-.364.118"/></g><g><path d="M59.54 36.927V34.19h2.049v2.737h-.279v-2.49h-1.492v2.49z"/></g><g><path d="M62.31 36.927V34.19h2.048v2.737h-.278v-2.49h-1.492v2.49z"/></g><g><path d="M64.76 36.927l1.183-2.737h.27l1.175 2.737h-.308l-.302-.72h-1.415l-.297.72zm.707-.974h1.197l-.598-1.454z"/></g><g><path d="M68.76 36.927V34.19h.279v1.23h.003l1.303-1.23h.398l-1.38 1.241 1.457 1.496h-.41l-1.368-1.457h-.003v1.457z"/></g><g><path d="M73.397 36.588a1.38 1.38 0 0 1-1.02.408c-.41 0-.75-.136-1.02-.408-.272-.272-.407-.615-.407-1.03 0-.415.135-.758.406-1.03a1.38 1.38 0 0 1 1.02-.408c.41 0 .75.136 1.02.408.271.272.407.615.407 1.03 0 .415-.136.758-.406 1.03m-1.842-.186c.208.23.481.347.822.347.34 0 .614-.116.82-.347.208-.23.312-.512.312-.844 0-.333-.104-.615-.311-.847-.207-.231-.481-.348-.821-.348-.34 0-.614.117-.822.348a1.224 1.224 0 0 0-.311.847c0 .332.104.614.31.844"/></g><g><path d="M74.38 36.927V34.19h.425l.928 2.266h.004l.916-2.266h.425v2.737H76.8v-2.378h-.008l-.99 2.378h-.147l-.99-2.378h-.007v2.378z"/></g><g><path d="M77.81 36.927V34.19h2.048v2.737h-.278v-2.49h-1.492v2.49z"/></g><g><path d="M80.26 36.927l1.183-2.737h.27l1.175 2.737h-.309l-.301-.72h-1.415l-.297.72zm.707-.974h1.197l-.598-1.454z"/></g><g><path d="M83.29 36.927V34.19h.278v1.187h1.492V34.19h.278v2.737h-.278v-1.295h-1.492v1.295z"/></g><g><path d="M86.06 36.927V34.19h.279v2.304h.007l1.508-2.304h.313v2.737h-.278V34.6h-.009l-1.506 2.327z"/></g><g><path d="M88.9 36.93v-2.737h.278v2.303h.008l1.507-2.303h.314v2.737h-.279v-2.328h-.007l-1.508 2.328zm1.051-3a.568.568 0 0 1-.388-.134.532.532 0 0 1-.176-.361l.178-.035a.38.38 0 0 0 .386.32.38.38 0 0 0 .387-.32l.178.035a.534.534 0 0 1-.176.361.57.57 0 0 1-.389.134z"/></g></g></g></g></svg>